{"scene":0,"asset":{"generator":"ImageToStl.com","version":"2.0"},"scenes":[{"name":"Scene","nodes":[0]}],"nodes":[{"name":"Node0","children":[1,2]},{"name":"Node1","mesh":0},{"name":"Node2","mesh":1}],"materials":[{"name":"Materiais","pbrMetallicRoughness":{"baseColorFactor":[0.056752,0.182271,0.014289,1.0],"metallicFactor":1.0,"roughnessFactor":1.0},"emissiveFactor":[0.0,0.0,0.0],"doubleSided":true},{"name":"Materiais.001","pbrMetallicRoughness":{"baseColorFactor":[0.8,0.00776,0.0,1.0],"metallicFactor":0.095455,"roughnessFactor":0.9072521},"emissiveFactor":[0.0,0.0,0.0],"doubleSided":true}],"meshes":[{"name":"Mesh0","primitives":[{"indices":3,"material":0,"attributes":{"POSITION":0,"NORMAL":1,"TEXCOORD_0":2}}]},{"name":"Mesh0","primitives":[{"indices":7,"material":1,"attributes":{"POSITION":4,"NORMAL":5,"TEXCOORD_0":6}}]}],"accessors":[{"bufferView":0,"componentType":5126,"count":2233,"type":"VEC3","min":[-1.8270239,-1.7656459,0.0],"max":[1.5581567,1.8771673,7.865161]},{"bufferView":1,"componentType":5126,"count":2233,"type":"VEC3"},{"bufferView":2,"componentType":5126,"count":2233,"type":"VEC2"},{"bufferView":3,"componentType":5123,"count":32400,"type":"SCALAR"},{"bufferView":4,"componentType":5126,"count":27714,"type":"VEC3","min":[-2.2434502,-2.145234,3.2566898],"max":[1.9492791,2.328154,8.297557]},{"bufferView":5,"componentType":5126,"count":27714,"type":"VEC3"},{"bufferView":6,"componentType":5126,"count":27714,"type":"VEC2"},{"bufferView":7,"componentType":5123,"count":166284,"type":"SCALAR"}],"bufferViews":[{"target":34962,"buffer":0,"byteLength":26796,"byteOffset":0},{"target":34962,"buffer":0,"byteLength":26796,"byteOffset":26796},{"target":34962,"buffer":0,"byteLength":17864,"byteOffset":53592},{"target":34963,"buffer":0,"byteLength":64800,"byteOffset":71456},{"target":34962,"buffer":0,"byteLength":332568,"byteOffset":136256},{"target":34962,"buffer":0,"byteLength":332568,"byteOffset":468824},{"target":34962,"buffer":0,"byteLength":221712,"byteOffset":801392},{"target":34963,"buffer":0,"byteLength":332568,"byteOffset":1023104}],"buffers":[{"byteLength":1355672,"uri":"data:application/octet-stream;base64,"}]}