{"scene":0,"asset":{"generator":"ImageToStl.com","version":"2.0"},"scenes":[{"name":"Scene","nodes":[0]}],"nodes":[{"name":"Node0","children":[1,2,3,4]},{"name":"Node1","mesh":0},{"name":"Node2","mesh":1},{"name":"Node3","mesh":2},{"name":"Node4","mesh":3}],"materials":[{"name":"Material.001","pbrMetallicRoughness":{"baseColorFactor":[0.181164,0.107023,0.064803,1.0],"metallicFactor":0.5,"roughnessFactor":0.99691355},"emissiveFactor":[0.0,0.0,0.0],"doubleSided":true},{"name":"Material.003","pbrMetallicRoughness":{"baseColorFactor":[0.129556,0.334323,0.087373,1.0],"metallicFactor":0.5,"roughnessFactor":0.9905479},"emissiveFactor":[0.0,0.0,0.0],"doubleSided":true},{"name":"Material.002","pbrMetallicRoughness":{"baseColorFactor":[0.174647,0.456411,0.116971,1.0],"metallicFactor":0.5,"roughnessFactor":0.9992284},"emissiveFactor":[0.0,0.0,0.0],"doubleSided":true},{"name":"Material.004","pbrMetallicRoughness":{"baseColorFactor":[0.120841,0.310813,0.081642,1.0],"metallicFactor":0.5,"roughnessFactor":0.96219134},"emissiveFactor":[0.0,0.0,0.0],"doubleSided":true}],"meshes":[{"name":"Mesh0","primitives":[{"indices":3,"material":0,"attributes":{"POSITION":0,"NORMAL":1,"TEXCOORD_0":2}}]},{"name":"Mesh0","primitives":[{"indices":7,"material":1,"attributes":{"POSITION":4,"NORMAL":5,"TEXCOORD_0":6}}]},{"name":"Mesh0","primitives":[{"indices":11,"material":2,"attributes":{"POSITION":8,"NORMAL":9,"TEXCOORD_0":10}}]},{"name":"Mesh0","primitives":[{"indices":15,"material":3,"attributes":{"POSITION":12,"NORMAL":13,"TEXCOORD_0":14}}]}],"accessors":[{"bufferView":0,"componentType":5126,"count":221,"type":"VEC3","min":[-0.38701186,-0.12396391,0.07807085],"max":[1.019958,0.07664023,3.0796545]},{"bufferView":1,"componentType":5126,"count":221,"type":"VEC3"},{"bufferView":2,"componentType":5126,"count":221,"type":"VEC2"},{"bufferView":3,"componentType":5123,"count":1962,"type":"SCALAR"},{"bufferView":4,"componentType":5126,"count":22,"type":"VEC3","min":[0.623811,-0.3429074,2.045169],"max":[1.3252692,0.32421216,2.5526989]},{"bufferView":5,"componentType":5126,"count":22,"type":"VEC3"},{"bufferView":6,"componentType":5126,"count":22,"type":"VEC2"},{"bufferView":7,"componentType":5123,"count":180,"type":"SCALAR"},{"bufferView":8,"componentType":5126,"count":63,"type":"VEC3","min":[-0.5847044,-0.7348994,2.4421394],"max":[1.7902076,0.76349044,3.9084694]},{"bufferView":9,"componentType":5126,"count":63,"type":"VEC3"},{"bufferView":10,"componentType":5126,"count":63,"type":"VEC2"},{"bufferView":11,"componentType":5123,"count":720,"type":"SCALAR"},{"bufferView":12,"componentType":5126,"count":22,"type":"VEC3","min":[-0.565023,-0.25248888,2.0958056],"max":[0.027531892,0.17897832,2.5504239]},{"bufferView":13,"componentType":5126,"count":22,"type":"VEC3"},{"bufferView":14,"componentType":5126,"count":22,"type":"VEC2"},{"bufferView":15,"componentType":5123,"count":180,"type":"SCALAR"}],"bufferViews":[{"target":34962,"buffer":0,"byteLength":2652,"byteOffset":0},{"target":34962,"buffer":0,"byteLength":2652,"byteOffset":2652},{"target":34962,"buffer":0,"byteLength":1768,"byteOffset":5304},{"target":34963,"buffer":0,"byteLength":3924,"byteOffset":7072},{"target":34962,"buffer":0,"byteLength":264,"byteOffset":10996},{"target":34962,"buffer":0,"byteLength":264,"byteOffset":11260},{"target":34962,"buffer":0,"byteLength":176,"byteOffset":11524},{"target":34963,"buffer":0,"byteLength":360,"byteOffset":11700},{"target":34962,"buffer":0,"byteLength":756,"byteOffset":12060},{"target":34962,"buffer":0,"byteLength":756,"byteOffset":12816},{"target":34962,"buffer":0,"byteLength":504,"byteOffset":13572},{"target":34963,"buffer":0,"byteLength":1440,"byteOffset":14076},{"target":34962,"buffer":0,"byteLength":264,"byteOffset":15516},{"target":34962,"buffer":0,"byteLength":264,"byteOffset":15780},{"target":34962,"buffer":0,"byteLength":176,"byteOffset":16044},{"target":34963,"buffer":0,"byteLength":360,"byteOffset":16220}],"buffers":[{"byteLength":16580,"uri":"data:application/octet-stream;base64,"}]}