{"scene":0,"asset":{"generator":"ImageToStl.com","version":"2.0"},"scenes":[{"name":"Scene","nodes":[0]}],"nodes":[{"name":"Node0","children":[1]},{"name":"Node1","mesh":0}],"materials":[{"name":"ufo.001","pbrMetallicRoughness":{"baseColorFactor":[0.8,0.8,0.8,1.0],"metallicFactor":0.5,"roughnessFactor":0.75},"emissiveFactor":[0.0,0.0,0.0],"doubleSided":true}],"meshes":[{"name":"Mesh0","primitives":[{"indices":3,"material":0,"attributes":{"POSITION":0,"NORMAL":1,"TEXCOORD_0":2}}]}],"accessors":[{"bufferView":0,"componentType":5126,"count":3999,"type":"VEC3","min":[-1.1774074,-1.2078829,-1.0673215],"max":[1.1760521,1.1601375,1.0524735]},{"bufferView":1,"componentType":5126,"count":3999,"type":"VEC3"},{"bufferView":2,"componentType":5126,"count":3999,"type":"VEC2"},{"bufferView":3,"componentType":5123,"count":51534,"type":"SCALAR"}],"bufferViews":[{"target":34962,"buffer":0,"byteLength":47988,"byteOffset":0},{"target":34962,"buffer":0,"byteLength":47988,"byteOffset":47988},{"target":34962,"buffer":0,"byteLength":31992,"byteOffset":95976},{"target":34963,"buffer":0,"byteLength":103068,"byteOffset":127968}],"buffers":[{"byteLength":231036,"uri":"data:application/octet-stream;base64,"}]}